name ./resultDataOpenSim/trcMotMarkerGrf/sub09/grf-01-04.mot
datacolumns 19
datarows 10
range 0.46800000 0.50400000
endheader

                time	     ground_force_vx	     ground_force_vy	     ground_force_vz	     ground_force_px	     ground_force_py	     ground_force_pz	   l_ground_force_vx	   l_ground_force_vy	   l_ground_force_vz	   l_ground_force_px	   l_ground_force_py	   l_ground_force_pz	     ground_torque_x	     ground_torque_y	     ground_torque_z	   l_ground_torque_x	   l_ground_torque_y	   l_ground_torque_z	
          0.46800000	         30.05242595	        379.62615091	        -20.02032591	         -0.70180265	          0.00000000	          0.14063181	          0.00000000	          0.00000000	          0.00000000	          0.00000000	          0.00000000	          0.00000000	          0.00000000	          3.97736559	          0.00000000	          0.00000000	          0.00000000	          0.00000000	
          0.47200000	         33.37789474	        387.78904300	        -21.98156430	         -0.70089177	          0.00000000	          0.14097524	          0.00000000	          0.00000000	          0.00000000	          0.00000000	          0.00000000	          0.00000000	          0.00000000	          4.12067224	          0.00000000	          0.00000000	          0.00000000	          0.00000000	
          0.47600000	         37.13140541	        396.24956577	        -24.01478901	         -0.69996948	          0.00000000	          0.14131261	          0.00000000	          0.00000000	          0.00000000	          0.00000000	          0.00000000	          0.00000000	          0.00000000	          4.27539707	          0.00000000	          0.00000000	          0.00000000	          0.00000000	
          0.48000000	         41.24842959	        405.06877439	        -25.93816916	         -0.69902481	          0.00000000	          0.14162494	          0.00000000	          0.00000000	          0.00000000	          0.00000000	          0.00000000	          0.00000000	          0.00000000	          4.46948284	          0.00000000	          0.00000000	          0.00000000	          0.00000000	
          0.48400000	         45.54040949	        414.34741679	        -27.58468011	         -0.69803375	          0.00000000	          0.14188508	          0.00000000	          0.00000000	          0.00000000	          0.00000000	          0.00000000	          0.00000000	          0.00000000	          4.73035752	          0.00000000	          0.00000000	          0.00000000	          0.00000000	
          0.48800000	         49.75434369	        424.21686057	        -28.83870946	         -0.69696816	          0.00000000	          0.14206623	          0.00000000	          0.00000000	          0.00000000	          0.00000000	          0.00000000	          0.00000000	          0.00000000	          5.07717630	          0.00000000	          0.00000000	          0.00000000	          0.00000000	
          0.49200000	         53.64620515	        434.82350898	        -29.66101717	         -0.69579675	          0.00000000	          0.14214938	          0.00000000	          0.00000000	          0.00000000	          0.00000000	          0.00000000	          0.00000000	          0.00000000	          5.51425942	          0.00000000	          0.00000000	          0.00000000	          0.00000000	
          0.49600000	         57.04706740	        446.30787406	        -30.09911626	         -0.69448816	          0.00000000	          0.14212879	          0.00000000	          0.00000000	          0.00000000	          0.00000000	          0.00000000	          0.00000000	          0.00000000	          6.02725641	          0.00000000	          0.00000000	          0.00000000	          0.00000000	
          0.50000000	         59.91094460	        458.77705021	        -30.28617559	         -0.69302350	          0.00000000	          0.14201395	          0.00000000	          0.00000000	          0.00000000	          0.00000000	          0.00000000	          0.00000000	          0.00000000	          6.58294542	          0.00000000	          0.00000000	          0.00000000	          0.00000000	
          0.50400000	         62.33035788	        472.26879398	        -30.42861157	         -0.69141893	          0.00000000	          0.14182287	          0.00000000	          0.00000000	          0.00000000	          0.00000000	          0.00000000	          0.00000000	          0.00000000	          7.13292536	          0.00000000	          0.00000000	          0.00000000	          0.00000000	
